# xmcd
#
# Track frame offsets:
#	150
#	15821
#	30853
#	45981
#	60598
#	75547
#	90662
#	105030
#	120716
#	134370
#	148545
#	166067
#	179647
#	191988
#	205579
#
# Disc length: 2949 seconds
#
# Revision: 1
# Processed by: cddbd v1.5.2PL0 Copyright (c) Steve Scherf et al.
# Submitted via: audiograbber 1.83.01
#
DISCID=af0b830f
DTITLE=Truck Stop - Das große Jubiläum - 09 - Knut... Ich singe für euch!
DYEAR=2018
DGENRE=Country
TTITLE0=Wenn ein Stern vom Himmel fällt
TTITLE1=Weil ihr die Country Music liebt
TTITLE2=Trucker bleibt Trucker
TTITLE3=Der Traum vom großen Abenteuer (Live)
TTITLE4=Telegramm aus Texas
TTITLE5=1000 Meilen Staub auf uns'ren Stiefeln
TTITLE6=Wir sind noch lange keine Opas
TTITLE7=Cowboys
TTITLE8=Alter Freund
TTITLE9=Heut ist wieder so ein Tag
TTITLE10=Big Old Joe, der Weihnachtsbär
TTITLE11=Wir sind die Elbe-Cowboys
TTITLE12=Cisco, Lucius, Erich, Uwe, Teddy und ich
TTITLE13=Danke für nix
TTITLE14=ich hab' kein'n Plan
EXTD=
EXTT0=
EXTT1=
EXTT2=
EXTT3=
EXTT4=
EXTT5=
EXTT6=
EXTT7=
EXTT8=
EXTT9=
EXTT10=
EXTT11=
EXTT12=
EXTT13=
EXTT14=
PLAYORDER=
